<svg height="496pt" viewBox="0 0 496 496" width="496pt" xmlns="http://www.w3.org/2000/svg"><path d="m8 376h480v112h-480zm0 0" fill="#fcd770"/><path d="m216 424h64v64h-64zm0 0" fill="#b27946"/><path d="m136 488v-50.742188c0-8.488281 3.367188-16.625 9.375-22.625l14.625-14.632812 14.625 14.625c6 6 9.375 14.144531 9.375 22.621094v50.753906zm0 0" fill="#b27946"/><path d="m160 400-14.625 14.625c-6.007812 6.007812-9.375 14.144531-9.375 22.632812v2.742188h48v-2.742188c0-8.488281-3.367188-16.625-9.375-22.625zm0 0" fill="#cf9e76"/><path d="m48 232h400v144h-400zm0 0" fill="#fcd770"/><path d="m48 272h400v16h-400zm0 0" fill="#ffc729"/><path d="m48 360h400v16h-400zm0 0" fill="#ffc729"/><path d="m48 232h400v32h-400zm0 0" fill="#ffeaa7"/><path d="m360 488v-50.742188c0-8.488281-3.367188-16.625-9.375-22.625l-14.625-14.632812-14.625 14.625c-6.007812 6.007812-9.375 14.144531-9.375 22.632812v50.742188zm0 0" fill="#b27946"/><path d="m336 400-14.625 14.625c-6.007812 6.007812-9.375 14.144531-9.375 22.632812v2.742188h48v-2.742188c0-8.488281-3.367188-16.625-9.375-22.625zm0 0" fill="#cf9e76"/><path d="m144 264h208v112h-208zm0 0" fill="#e6e9ed"/><path d="m144 272h208v16h-208zm0 0" fill="#ccd1d9"/><path d="m144 360h208v16h-208zm0 0" fill="#ccd1d9"/><path d="m200 376v-52.222656c0-12.121094 6.847656-23.203125 17.6875-28.625l30.3125-15.152344 30.3125 15.152344c10.839844 5.421875 17.6875 16.503906 17.6875 28.625v52.222656zm0 0" fill="#cf9e76"/><path d="m200 360h96v16h-96zm0 0" fill="#b27946"/><path d="m278.3125 295.152344-30.3125-15.152344-30.3125 15.152344c-10.839844 5.421875-17.6875 16.503906-17.6875 28.625v4.222656h96v-4.222656c0-12.121094-6.847656-23.203125-17.6875-28.625zm0 0" fill="#dfb28b"/><path d="m232 328h32v48h-32zm0 0" fill="#656d78"/><path d="m312 192 3.585938-7.175781c2.902343-5.800781 4.414062-12.199219 4.414062-18.695313 0-17.992187-11.511719-33.96875-28.585938-39.65625-12.886718-4.296875-25.140624-10.289062-36.4375-17.824218l-6.976562-4.648438-6.96875 4.648438c-11.304688 7.535156-23.558594 13.527343-36.4375 17.824218-17.082031 5.6875-28.59375 21.664063-28.59375 39.65625 0 6.488282 1.511719 12.886719 4.414062 18.695313l3.585938 7.175781v24h128zm0 0" fill="#fcd770"/><path d="m184 169.375-6.761719 6.761719c.738281 2.992187 1.785157 5.910156 3.175781 8.6875l3.585938 7.175781v24h128v-24l3.585938-7.175781c1.390624-2.777344 2.4375-5.695313 3.175781-8.6875l-6.761719-6.761719-16 16-16-16-16 16-16-16-16 16-16-16-16 16zm0 0" fill="#ffc729"/><path d="m280 192v-18.382812c0-13.839844-5.496094-27.121094-15.289062-36.90625-5.726563-5.726563-10.046876-12.710938-12.605469-20.398438l-4.105469-12.3125-4.105469 12.3125c-2.558593 7.6875-6.878906 14.671875-12.605469 20.398438-9.792968 9.792968-15.289062 23.066406-15.289062 36.90625v42.382812h64zm0 0" fill="#ffeaa7"/><path d="m80 304h32v32h-32zm0 0" fill="#b27946"/><path d="m416 336h-32v-32h32zm0 0" fill="#b27946"/><path d="m280 173.617188c0-1.359376-.097656-2.707032-.199219-4.050782l-15.800781 15.808594-16-16-16 16-15.800781-15.800781c-.101563 1.347656-.199219 2.691406-.199219 4.042969v42.382812h64zm0 0" fill="#fcd770"/><g fill="#e6e9ed"><path d="m232 232v-17.375c0-4.242188 1.6875-8.3125 4.6875-11.3125l11.3125-11.3125 11.3125 11.3125c3 3 4.6875 7.070312 4.6875 11.3125v17.375zm0 0"/><path d="m200 232v-17.375c0-4.242188 1.6875-8.3125 4.6875-11.3125l11.3125-11.3125 11.3125 11.3125c3 3 4.6875 7.070312 4.6875 11.3125v17.375zm0 0"/><path d="m168 232v-17.375c0-4.242188 1.6875-8.3125 4.6875-11.3125l11.3125-11.3125 11.3125 11.3125c3 3 4.6875 7.070312 4.6875 11.3125v17.375zm0 0"/><path d="m136 232v-17.375c0-4.242188 1.6875-8.3125 4.6875-11.3125l11.3125-11.3125 11.3125 11.3125c3 3 4.6875 7.070312 4.6875 11.3125v17.375zm0 0"/><path d="m328 232v-17.375c0-4.242188 1.6875-8.3125 4.6875-11.3125l11.3125-11.3125 11.3125 11.3125c3 3 4.6875 7.070312 4.6875 11.3125v17.375zm0 0"/><path d="m296 232v-17.375c0-4.242188 1.6875-8.3125 4.6875-11.3125l11.3125-11.3125 11.3125 11.3125c3 3 4.6875 7.070312 4.6875 11.3125v17.375zm0 0"/><path d="m264 232v-17.375c0-4.242188 1.6875-8.3125 4.6875-11.3125l11.3125-11.3125 11.3125 11.3125c3 3 4.6875 7.070312 4.6875 11.3125v17.375zm0 0"/><path d="m264 88c0 8.835938-7.164062 16-16 16s-16-7.164062-16-16 7.164062-16 16-16 16 7.164062 16 16zm0 0"/><path d="m64 152h48v80h-48zm0 0"/></g><path d="m112 152 4.710938-9.433594c2.160156-4.320312 3.289062-9.085937 3.289062-13.917968 0-10.410157-5.199219-20.121094-13.855469-25.886719-6.648437-4.433594-12.023437-10.523438-15.59375-17.664063l-2.550781-5.097656-2.550781 5.097656c-3.578125 7.140625-8.945313 13.230469-15.59375 17.664063-8.65625 5.773437-13.855469 15.484375-13.855469 25.894531 0 4.832031 1.128906 9.589844 3.289062 13.917969l4.710938 9.425781zm0 0" fill="#fcd770"/><path d="m384 152h48v80h-48zm0 0" fill="#e6e9ed"/><path d="m384 152-4.710938-9.433594c-2.160156-4.320312-3.289062-9.085937-3.289062-13.917968 0-10.410157 5.199219-20.121094 13.855469-25.886719 6.648437-4.433594 12.023437-10.523438 15.59375-17.664063l2.550781-5.097656 2.550781 5.097656c3.578125 7.140625 8.945313 13.230469 15.59375 17.664063 8.65625 5.773437 13.855469 15.484375 13.855469 25.894531 0 4.832031-1.128906 9.589844-3.289062 13.917969l-4.710938 9.425781zm0 0" fill="#fcd770"/><path d="m232 360h32v16h-32zm0 0" fill="#5b6570"/><path d="m64 160h48v16h-48zm0 0" fill="#ccd1d9"/><path d="m384 160h48v16h-48zm0 0" fill="#ccd1d9"/><path d="m384 216h48v16h-48zm0 0" fill="#ccd1d9"/><path d="m64 216h48v16h-48zm0 0" fill="#ccd1d9"/><path d="m136 216h224v16h-224zm0 0" fill="#ccd1d9"/><path d="m456 368v-96h16v-16h-16v-32h-16v-64h16v-16h-11.207031c2.0625-4.839844 3.207031-10.078125 3.207031-15.34375 0-13.105469-6.511719-25.273438-17.425781-32.542969-5.484375-3.65625-9.933594-8.699219-12.871094-14.585937l-1.703125-3.414063v-22.113281h-16v22.113281l-1.703125 3.40625c-2.9375 5.878907-7.394531 10.929688-12.871094 14.585938-10.914062 7.277343-17.425781 19.4375-17.425781 32.550781 0 5.265625 1.144531 10.511719 3.207031 15.34375h-11.207031v16h16v64h-8v-9.367188c0-6.410156-2.496094-12.441406-7.03125-16.976562l-16.96875-16.96875-16 16-6.265625-6.261719 1.007813-2.019531c3.433593-6.871094 5.257812-14.574219 5.257812-22.269531 0-21.472657-13.6875-40.464844-34.054688-47.25-10.273437-3.421875-20.074218-8.046875-29.3125-13.648438 4.527344-4.375 7.367188-10.46875 7.367188-17.238281 0-10.414062-6.710938-19.214844-16-22.527344v-25.472656h16v-16h-16v-24h-16v24h-16v16h16v25.472656c-9.289062 3.3125-16 12.113282-16 22.527344 0 6.769531 2.839844 12.863281 7.359375 17.230469-9.230469 5.601562-19.039063 10.226562-29.3125 13.648437-20.359375 6.785156-34.046875 25.785156-34.046875 47.257813 0 7.695312 1.824219 15.398437 5.257812 22.269531l1.007813 2.019531-6.265625 6.261719-16-16-16.96875 16.96875c-4.535156 4.527344-7.03125 10.558594-7.03125 16.976562v9.367188h-8v-64h16v-16h-11.207031c2.0625-4.839844 3.207031-10.078125 3.207031-15.34375 0-13.105469-6.511719-25.273438-17.425781-32.542969-5.484375-3.65625-9.933594-8.699219-12.871094-14.585937l-1.703125-3.414063v-22.113281h-16v22.113281l-1.703125 3.40625c-2.9375 5.878907-7.394531 10.929688-12.871094 14.585938-10.914062 7.277343-17.425781 19.4375-17.425781 32.550781 0 5.265625 1.144531 10.503906 3.207031 15.34375h-11.207031v16h16v64h-16v32h-16v16h16v96h-40v128h496v-128zm-16 0h-80v-96h80zm-193.886719-96-32 16c-13.640625 6.824219-22.113281 20.527344-22.113281 35.777344v44.222656h-40v-96zm-37.792969 48c1.191407-7.59375 5.910157-14.167969 12.945313-17.6875l26.734375-13.367188 26.734375 13.367188c7.035156 3.519531 11.753906 10.09375 12.945313 17.6875zm-.320312 16h16v32h-16zm32 0h16v32h-16zm32 0h16v32h-16zm9.886719-48-32-16h94.113281v96h-40v-44.222656c0-15.25-8.472656-28.953125-22.113281-35.777344zm104.5625-149.007812c-1.609375-3.191407-2.449219-6.769532-2.449219-10.335938 0-7.746094 3.847656-14.9375 10.296875-19.230469 5.351563-3.578125 9.949219-8.128906 13.703125-13.304687 3.753906 5.183594 8.351562 9.734375 13.703125 13.304687 6.449219 4.292969 10.296875 11.484375 10.296875 19.230469 0 3.566406-.839844 7.144531-2.449219 10.34375l-2.496093 5h-38.101563zm5.550781 21.007812h32v64h-32zm-53.65625 48.96875 5.65625-5.65625 5.65625 5.65625c1.511719 1.511719 2.34375 3.527344 2.34375 5.664062v9.367188h-16v-9.367188c0-2.136718.832031-4.152343 2.34375-5.664062zm-154.34375-5.65625 5.65625 5.65625c1.511719 1.511719 2.34375 3.527344 2.34375 5.664062v9.367188h-16v-9.367188c0-2.136718.832031-4.152343 2.34375-5.664062zm24 11.320312c0-2.136718.832031-4.152343 2.34375-5.664062l5.65625-5.65625 5.65625 5.65625c1.511719 1.511719 2.34375 3.527344 2.34375 5.664062v9.367188h-16zm40-87.65625c2.871094 5.664063 6.566406 10.910157 11.054688 15.390626 8.351562 8.34375 12.945312 19.449218 12.945312 31.257812v15.0625l-8 8-16-16-16 16-8-8v-15.0625c0-11.808594 4.59375-22.90625 12.945312-31.257812 4.488282-4.480469 8.183594-9.734376 11.054688-15.390626zm-8 87.65625c0-2.136718.832031-4.152343 2.34375-5.664062l5.65625-5.65625 5.65625 5.65625c1.511719 1.511719 2.34375 3.527344 2.34375 5.664062v9.367188h-16zm32 0c0-2.136718.832031-4.152343 2.34375-5.664062l5.65625-5.65625 5.65625 5.65625c1.511719 1.511719 2.34375 3.527344 2.34375 5.664062v9.367188h-16zm32 0c0-2.136718.832031-4.152343 2.34375-5.664062l5.65625-5.65625 5.65625 5.65625c1.511719 1.511719 2.34375 3.527344 2.34375 5.664062v9.367188h-16zm8-48.496093c0 5.222656-1.230469 10.457031-3.566406 15.121093l-3.007813 6.015626-9.425781 9.414062-8-8v-15.0625c0-16.082031-6.265625-31.191406-17.632812-42.570312-2.304688-2.300782-4.328126-4.878907-6.0625-7.628907 7.886718 4.191407 16.085937 7.804688 24.582031 10.636719 13.824219 4.601562 23.113281 17.496094 23.113281 32.074219zm-64-86.136719c4.414062 0 8 3.59375 8 8s-3.585938 8-8 8-8-3.59375-8-8 3.585938-8 8-8zm-40.878906 54.0625c8.496094-2.832031 16.695312-6.445312 24.582031-10.636719-1.742187 2.75-3.765625 5.328125-6.070313 7.628907-11.367187 11.371093-17.632812 26.488281-17.632812 42.570312v15.0625l-8 8-9.425781-9.421875-3.007813-6.027344c-2.335937-4.652343-3.566406-9.878906-3.566406-15.101562 0-14.578125 9.289062-27.472657 23.121094-32.074219zm-63.121094 80.570312c0-2.136718.832031-4.152343 2.34375-5.664062l5.65625-5.65625 5.65625 5.65625c1.511719 1.511719 2.34375 3.527344 2.34375 5.664062v9.367188h-16zm-77.550781-75.640624c-1.609375-3.191407-2.449219-6.769532-2.449219-10.335938 0-7.746094 3.847656-14.9375 10.296875-19.230469 5.351563-3.578125 9.949219-8.128906 13.703125-13.304687 3.753906 5.183594 8.351562 9.734375 13.703125 13.304687 6.449219 4.292969 10.296875 11.484375 10.296875 19.230469 0 3.566406-.839844 7.144531-2.449219 10.34375l-2.496093 5h-38.109376zm5.550781 21.007812h32v64h-32zm-16 80h384v16h-384zm0 32h80v96h-80zm424 112v64h-112v-10.742188c0-10.683593-4.167969-20.730468-11.71875-28.28125l-20.28125-20.296874-20.28125 20.289062c-7.550781 7.558594-11.71875 17.605469-11.71875 28.289062v10.742188h-16v-32h-80v32h-16v-10.742188c0-10.683593-4.167969-20.730468-11.71875-28.28125l-20.28125-20.296874-20.28125 20.289062c-7.550781 7.558594-11.71875 17.605469-11.71875 28.289062v10.742188h-112v-64zm-416 80v16h-16v-16zm16 0h16v16h-16zm32 0h16v16h-16zm32-16h32v32h-32zm.640625-16c1-4.390625 3.175781-8.503906 6.390625-11.710938l8.96875-8.96875 8.96875 8.96875c3.207031 3.207032 5.390625 7.320313 6.390625 11.710938zm47.359375 32h16v16h-16zm80-16h-48v-16h48zm-48 16h16v16h-16zm32 0h16v16h-16zm32 0h16v16h-16zm32-16h32v32h-32zm.640625-16c1-4.390625 3.175781-8.503906 6.390625-11.710938l8.96875-8.96875 8.96875 8.96875c3.207031 3.207032 5.390625 7.320313 6.390625 11.710938zm47.359375 32h16v16h-16zm32 0h16v16h-16zm32 0h16v16h-16zm-416 0h16v16h-16zm448 16v-16h16v16zm0 0"/><path d="m72 296v48h48v-48zm32 32h-16v-16h16zm0 0"/><path d="m424 344v-48h-48v48zm-32-32h16v16h-16zm0 0"/></svg>