<?xml version="1.0" encoding="iso-8859-1"?>
<!-- Generator: Adobe Illustrator 19.0.0, SVG Export Plug-In . SVG Version: 6.00 Build 0)  -->
<svg version="1.1" id="Capa_1" xmlns="http://www.w3.org/2000/svg" xmlns:xlink="http://www.w3.org/1999/xlink" x="0px" y="0px"
	 viewBox="0 0 512 512" style="enable-background:new 0 0 512 512;" xml:space="preserve">
<polyline style="fill:#FEE9B8;" points="395.857,158.69 395.857,101.508 434.435,46.763 473.012,101.508 473.012,158.69 
	473.012,190.648 473.012,472.439 395.857,472.439 395.857,190.648 "/>
<polygon style="fill:#E0C692;" points="434.435,46.759 420.423,101.507 420.423,472.439 395.857,472.439 395.857,101.507 "/>
<polygon style="fill:#FEE9B8;" points="320.599,296.919 66.329,296.919 27.704,335.194 27.704,504.397 66.329,504.397 
	320.599,504.397 359.224,504.397 359.224,335.194 "/>
<polygon style="fill:#E0C692;" points="116.488,296.92 93.098,335.193 93.098,504.397 27.704,504.397 27.704,335.193 66.332,296.92 
	"/>
<path style="fill:#EF9E00;" d="M340.503,249.648l-2.571,16.089c-5.308,18.162-17.333,31.182-17.333,31.182H66.329
	c0,0-12.025-13.02-17.333-31.182l-2.571-16.089c-0.083-7.961,1.576-16.254,6.054-24.631c19.323-35.91,140.985-88.406,140.985-88.406
	s0.083,0.083,0.332,0.166c7.133,3.069,121.91,53.491,140.653,88.239C338.927,233.393,340.586,241.687,340.503,249.648z"/>
<path style="fill:#D38802;" d="M46.426,249.648l2.571,16.089c5.308,18.162,17.333,31.182,17.333,31.182h68.005
	c-10.2-13.601-20.65-34.417-20.65-62.199c0-42.958,73.892-94.045,79.449-97.943c-7.133,3.069-121.91,53.491-140.653,88.239
	C48.001,233.393,46.343,241.687,46.426,249.648z"/>
<polyline style="fill:#322020;" points="147.603,504.397 147.603,414.313 193.464,367.634 239.325,414.313 239.325,504.397 "/>
<path style="fill:#FCD441;" d="M216.39,80.902c-24.472,0-44.31-19.838-44.31-44.31c0-10.461,3.634-20.069,9.697-27.649
	c-23.039,5.304-40.225,25.925-40.225,50.575c0,28.671,23.242,51.913,51.913,51.913c24.65,0,45.271-17.186,50.575-40.225
	C236.459,77.267,226.852,80.902,216.39,80.902z"/>
<rect x="384.568" y="472.44" style="fill:#E8BC98;" width="99.723" height="31.959"/>
<rect x="384.568" y="472.44" style="fill:#D4A77D;" width="36.325" height="31.959"/>
<rect x="384.568" y="158.69" style="fill:#E8BC98;" width="99.723" height="31.959"/>
<rect x="384.568" y="158.69" style="fill:#D4A77D;" width="36.325" height="31.959"/>
<g>
	<polygon style="fill:#322020;" points="452.195,130.099 434.435,116.36 416.675,130.099 416.675,158.69 452.195,158.69 	"/>
	<polygon style="fill:#322020;" points="322.479,363.44 296.447,343.302 270.415,363.44 270.415,405.348 322.479,405.348 	"/>
	<polygon style="fill:#322020;" points="116.513,363.44 90.481,343.302 64.449,363.44 64.449,405.348 116.513,405.348 	"/>
</g>
<path d="M480.616,215.212v-16.959h3.681c4.199,0,7.604-3.405,7.604-7.604V158.69c0-4.199-3.405-7.604-7.604-7.604h-3.681v-49.578
	c0-1.568-0.485-3.098-1.388-4.38l-37.189-52.776V7.923c0-4.164-3.208-7.795-7.37-7.919c-4.306-0.13-7.838,3.323-7.838,7.601v36.747
	l-37.188,52.777c-0.903,1.282-1.388,2.811-1.388,4.38v49.578h-3.681c-4.199,0-7.604,3.405-7.604,7.604v31.958
	c0,4.199,3.405,7.604,7.604,7.604h3.681v266.582h-3.681c-4.199,0-7.604,3.405-7.604,7.604v31.959c0,4.199,3.405,7.604,7.604,7.604
	h99.724c4.199,0,7.604-3.405,7.604-7.604v-31.958c0-4.199-3.405-7.604-7.604-7.604h-3.681V250.698c0-4.199-3.405-7.604-7.604-7.604
	l0,0c-4.199,0-7.604,3.405-7.604,7.604v214.137h-61.946V198.252h61.946v16.959c0,4.199,3.405,7.604,7.604,7.604l0,0
	C477.212,222.816,480.616,219.411,480.616,215.212z M473.012,480.043h3.681v16.75h-84.517v-16.75h3.681H473.012z M392.177,166.294
	h24.499h35.52h24.499v16.75h-84.516v-16.75H392.177z M444.591,151.086h-20.312V133.83l10.156-7.856l10.156,7.856V151.086z
	 M403.462,103.918l30.972-43.955l30.973,43.955v47.168h-5.61v-20.987c0-2.353-1.09-4.575-2.951-6.014l-17.76-13.739
	c-2.739-2.119-6.566-2.119-9.305,0l-17.76,13.739c-1.861,1.44-2.951,3.661-2.951,6.014v20.987h-5.61v-47.168H403.462z"/>
<path d="M291.795,337.288l-26.032,20.138c-1.861,1.44-2.951,3.661-2.951,6.014v41.908c0,4.199,3.405,7.604,7.604,7.604h52.065
	c4.199,0,7.604-3.405,7.604-7.604V363.44c0-2.353-1.09-4.575-2.951-6.014l-26.032-20.138
	C298.36,335.168,294.534,335.168,291.795,337.288z M314.875,397.744h-36.857v-30.573l18.428-14.256l18.428,14.256v30.573H314.875z"
	/>
<path d="M121.166,357.426l-26.032-20.138c-2.739-2.119-6.566-2.119-9.305,0l-26.032,20.138c-1.861,1.44-2.951,3.661-2.951,6.014
	v41.908c0,4.199,3.405,7.604,7.604,7.604h52.064c4.199,0,7.604-3.405,7.604-7.604V363.44
	C124.117,361.086,123.027,358.866,121.166,357.426z M108.909,397.744H72.053v-30.573l18.428-14.256l18.428,14.256
	C108.909,367.171,108.909,397.744,108.909,397.744z"/>
<path d="M330.816,296.338c4.379-5.942,10.793-16.074,14.414-28.468c0.089-0.306,0.16-0.618,0.211-0.933l2.571-16.089
	c0.059-0.37,0.09-0.745,0.094-1.12c0.104-9.953-2.235-19.472-6.965-28.32c-18.573-34.434-117.843-79.898-140.073-89.746v-13.106
	c24.534-3.093,44.706-20.994,50.381-45.645c0.726-3.153-0.624-6.421-3.363-8.143c-2.739-1.723-6.27-1.522-8.796,0.5
	c-6.569,5.254-14.487,8.031-22.899,8.031c-20.24,0-36.707-16.466-36.707-36.706c0-8.412,2.777-16.33,8.031-22.899
	c2.022-2.527,2.221-6.057,0.5-8.796c-1.723-2.739-4.992-4.089-8.143-3.363c-27.156,6.251-46.123,30.095-46.123,57.985
	c0,30.24,22.675,55.267,51.913,59.014v13.125c-9.791,4.372-33.924,15.411-59.237,28.991c-44.908,24.091-72.107,44.537-80.85,60.784
	c-4.715,8.822-7.054,18.341-6.951,28.295c0.004,0.375,0.035,0.75,0.094,1.121l2.571,16.089c0.051,0.315,0.121,0.627,0.21,0.933
	c3.623,12.395,10.035,22.527,14.414,28.469l-33.762,33.454c-1.441,1.428-2.252,3.372-2.252,5.401v169.201
	c0,4.199,3.405,7.604,7.604,7.604h331.522c4.199,0,7.604-3.405,7.604-7.604V335.194c0-2.029-0.811-3.973-2.252-5.401
	L330.816,296.338z M149.155,59.517c0-13.951,6.373-26.541,16.686-34.713c-0.901,3.848-1.366,7.805-1.366,11.787
	c0,28.625,23.288,51.914,51.915,51.914c3.982,0,7.94-0.465,11.787-1.366c-8.172,10.313-20.762,16.686-34.713,16.686
	C169.032,103.826,149.155,83.949,149.155,59.517z M231.72,496.793h-76.513v-79.369l38.257-38.94l38.256,38.94V496.793z
	 M351.621,496.793H246.928v-82.48c0-1.993-0.783-3.907-2.18-5.329l-45.738-46.555c-0.752-0.765-1.628-1.417-2.622-1.822
	c-2.985-1.214-6.238-0.45-8.348,1.698l-45.861,46.68c-1.397,1.421-2.18,3.336-2.18,5.329v82.479H35.307V338.365l34.151-33.842
	h69.617c4.199,0,7.604-3.405,7.604-7.604l0,0c0-4.199-3.405-7.604-7.604-7.604H69.887c-3.342-4.245-9.962-13.633-13.459-25.265
	l-2.401-15.024c0.008-7.263,1.697-13.949,5.149-20.405c14.384-26.73,98.984-68.206,134.256-83.7
	c8.272,3.657,34.773,15.615,62.709,30.781c22.744,12.347,62.292,35.641,71.602,52.902c3.462,6.475,5.151,13.161,5.159,20.423
	l-2.401,15.024c-3.498,11.636-10.122,21.026-13.459,25.265h-142.48c-4.199,0-7.604,3.405-7.604,7.604l0,0
	c0,4.199,3.405,7.604,7.604,7.604h142.909l34.151,33.842v158.427H351.621z"/>
<g>
</g>
<g>
</g>
<g>
</g>
<g>
</g>
<g>
</g>
<g>
</g>
<g>
</g>
<g>
</g>
<g>
</g>
<g>
</g>
<g>
</g>
<g>
</g>
<g>
</g>
<g>
</g>
<g>
</g>
</svg>
