<svg xmlns="http://www.w3.org/2000/svg" viewBox="0 0 129.82 35.41"><defs><style>.cls-1{fill:#fff;}</style></defs><g id="Layer_2" data-name="Layer 2"><g id="Layer_1-2" data-name="Layer 1"><g id="daanpay-logo"><path class="cls-1" d="M26.29,16.43A13.17,13.17,0,0,1,13.14,29.6V23a6.58,6.58,0,1,0,0-13.15H6.58s0,0,0,0V23s0,0,0,0h0V29.6H0a0,0,0,0,1,0,0V3.34l0,0H13.17A13.11,13.11,0,0,1,26.29,16.43Z"/><circle class="cls-1" cx="26.26" cy="3.29" r="3.29"/></g><path class="cls-1" d="M39.33,13.25A28.84,28.84,0,0,1,44,12.89c3.12,0,5.36.74,6.84,2.12a7.69,7.69,0,0,1,2.39,6,9,9,0,0,1-2.43,6.56C49.17,29.17,46.56,30,43.29,30a36.81,36.81,0,0,1-4-.19Zm2.19,14.92a15.48,15.48,0,0,0,2.19.1c4.67,0,7.18-2.58,7.18-7.15,0-4-2.23-6.49-6.82-6.49a12.8,12.8,0,0,0-2.55.22Z"/><path class="cls-1" d="M62.62,29.89l-.19-1.53h-.07a4.5,4.5,0,0,1-3.7,1.8A3.45,3.45,0,0,1,55,26.69c0-2.93,2.6-4.54,7.28-4.51v-.26a2.5,2.5,0,0,0-2.76-2.79,5.93,5.93,0,0,0-3.15.9l-.5-1.46a7.55,7.55,0,0,1,4-1.06c3.7,0,4.6,2.53,4.6,4.95V27a18.41,18.41,0,0,0,.19,2.9Zm-.34-6.18c-2.38-.05-5.11.37-5.11,2.71a1.94,1.94,0,0,0,2,2.11,3,3,0,0,0,3-2,2.16,2.16,0,0,0,.11-.69Z"/><path class="cls-1" d="M74.69,29.89l-.2-1.53h-.06a4.52,4.52,0,0,1-3.71,1.8A3.45,3.45,0,0,1,67,26.69c0-2.93,2.6-4.54,7.27-4.51v-.26a2.5,2.5,0,0,0-2.76-2.79,6,6,0,0,0-3.15.9l-.5-1.46a7.59,7.59,0,0,1,4-1.06c3.7,0,4.6,2.53,4.6,4.95V27a19.78,19.78,0,0,0,.18,2.9Zm-.35-6.18c-2.38-.05-5.1.37-5.1,2.71a1.94,1.94,0,0,0,2.05,2.11,3,3,0,0,0,2.95-2,2.14,2.14,0,0,0,.1-.69Z"/><path class="cls-1" d="M80,21.05c0-1.26,0-2.26-.1-3.27h2l.12,2h.06a4.47,4.47,0,0,1,4-2.26c1.66,0,4.27,1,4.27,5.16v7.22H88.15v-7c0-2-.74-3.6-2.8-3.6a3.18,3.18,0,0,0-3,2.26,3.48,3.48,0,0,0-.15,1v7.3H80Z"/><path class="cls-1" d="M93.93,21.73c0-1.55,0-2.8-.1-3.95h2l.12,2.07h0a4.72,4.72,0,0,1,4.29-2.34c2.93,0,5.14,2.47,5.14,6.14,0,4.36-2.67,6.51-5.5,6.51a4.22,4.22,0,0,1-3.73-1.9h0v6.58H93.93ZM96.12,25a4.43,4.43,0,0,0,.09.9,3.4,3.4,0,0,0,3.29,2.58c2.34,0,3.68-1.92,3.68-4.69,0-2.42-1.26-4.49-3.59-4.49A3.5,3.5,0,0,0,96.26,22a4,4,0,0,0-.14.9Z"/><path class="cls-1" d="M114.89,29.89l-.2-1.53h-.06a4.52,4.52,0,0,1-3.71,1.8,3.45,3.45,0,0,1-3.69-3.47c0-2.93,2.6-4.54,7.27-4.51v-.26a2.49,2.49,0,0,0-2.75-2.79,6,6,0,0,0-3.16.9l-.5-1.46a7.61,7.61,0,0,1,4-1.06c3.7,0,4.6,2.53,4.6,4.95V27a19.78,19.78,0,0,0,.18,2.9Zm-.35-6.18c-2.38-.05-5.1.37-5.1,2.71a1.94,1.94,0,0,0,2,2.11,3,3,0,0,0,3-2,2.14,2.14,0,0,0,.1-.69Z"/><path class="cls-1" d="M120.84,17.78l2.64,7.16c.29.8.58,1.75.78,2.47h.06c.22-.72.48-1.64.77-2.52l2.4-7.11h2.33l-3.31,8.62c-1.57,4.17-2.65,6.28-4.14,7.6a6.17,6.17,0,0,1-2.7,1.41l-.55-1.84a5.69,5.69,0,0,0,1.93-1.08A7,7,0,0,0,122.89,30a1.32,1.32,0,0,0,.17-.53,1.54,1.54,0,0,0-.15-.56l-4.47-11.17Z"/></g></g></svg>